<svg xmlns="http://www.w3.org/2000/svg" width="1440" height="900" viewBox="0 0 1440 900"><rect width="1440" height="900" fill="#101318"/><rect x="18" y="18" width="1404" height="864" rx="14" fill="#181d24" stroke="#39414d"/><rect x="18" y="18" width="238" height="864" rx="14" fill="#12161c"/><text x="48" y="72" fill="#f2f5f7" font-family="Segoe UI" font-size="26" font-weight="700">Warmstart</text><text x="286" y="74" fill="#f4f6f8" font-family="Segoe UI" font-size="30" font-weight="700">Statistics</text><text x="286" y="108" fill="#9da8b5" font-family="Segoe UI" font-size="16">What this fleet actually delivered</text><g font-family="Segoe UI"><rect x="286" y="145" width="330" height="470" rx="10" fill="#202630" stroke="#343d49"/><circle cx="310" cy="175" r="6" fill="#59c58b"/><text x="326" y="181" fill="#edf1f4" font-size="18" font-weight="600">Quality</text><text x="310" y="217" fill="#aeb8c4" font-size="14">Claude  0.84\nCodex   0.81</text><rect x="640" y="145" width="330" height="470" rx="10" fill="#202630" stroke="#343d49"/><circle cx="664" cy="175" r="6" fill="#59c58b"/><text x="680" y="181" fill="#edf1f4" font-size="18" font-weight="600">Cost / task</text><text x="664" y="217" fill="#aeb8c4" font-size="14">$0.42 median</text><rect x="994" y="145" width="330" height="470" rx="10" fill="#202630" stroke="#343d49"/><circle cx="1018" cy="175" r="6" fill="#59c58b"/><text x="1034" y="181" fill="#edf1f4" font-size="18" font-weight="600">Velocity</text><text x="1018" y="217" fill="#aeb8c4" font-size="14">27 min median</text></g><circle cx="48" cy="842" r="5" fill="#59c58b"/><text x="62" y="847" fill="#9da8b5" font-size="14">Fleet connected</text></svg>
